<svg t="1628129628399" class="icon" viewBox="0 0 1024 1024" version="1.1" xmlns="http://www.w3.org/2000/svg" p-id="4426" width="32" height="32"><path d="M0.00896 883.584V629.824c0-42.24 33.6-76.416 75.072-76.416h249.472c41.472 0 75.072 34.176 75.072 76.416v253.76c0 42.24-33.6 76.416-75.072 76.416H75.08096A75.712 75.712 0 0 1 0.00896 883.584zM0.00896 426.24V172.416C0.00896 130.176 33.60896 96 75.08096 96h249.472c41.472 0 75.072 34.176 75.072 76.416v253.76c0 42.24-33.6 76.416-75.072 76.416H75.08096A75.712 75.712 0 0 1 0.00896 426.176z m974.272-203.136H474.76096a25.216 25.216 0 0 1-24.96-25.408c0-14.016 11.136-25.408 24.96-25.408h499.52c13.76 0 24.96 11.392 24.96 25.408 0 14.08-11.2 25.408-24.96 25.408z m0 457.408H474.76096a25.216 25.216 0 0 1-24.96-25.408c0-14.016 11.136-25.408 24.96-25.408h499.52c13.76 0 24.96 11.392 24.96 25.408 0 14.08-11.2 25.408-24.96 25.408z m0-254.08H474.76096a25.216 25.216 0 0 1-24.96-25.408c0-14.08 11.136-25.408 24.96-25.408h499.52c13.76 0 24.96 11.392 24.96 25.408 0 14.016-11.2 25.408-24.96 25.408z m0 457.408H474.76096a25.216 25.216 0 0 1-24.96-25.408c0-14.08 11.136-25.408 24.96-25.408h499.52c13.76 0 24.96 11.392 24.96 25.408 0 14.016-11.2 25.408-24.96 25.408z" p-id="4427"></path></svg>