<svg t="1629253135443" class="icon" viewBox="0 0 1024 1024" version="1.1" xmlns="http://www.w3.org/2000/svg" p-id="5005" width="64" height="64"><path d="M809.7792 637.824c29.248 11.776 52.096 45.952 52.096 79.04v136.96l-1.792 5.248a70.4 70.4 0 0 1-66.112 48.576H200.4992c-34.048 0-62.848-25.344-67.328-59.264h-0.512V716.8c0-32.832 22.656-66.944 52.864-79.36 4.992-2.24 111.232-48.832 223.296-68.224a183.296 183.296 0 0 1-76.8-149.184V311.168c0-44.608 16.32-87.68 45.824-121.024A181.12 181.12 0 0 1 514.1632 128a182.784 182.784 0 0 1 181.952 183.168v108.928c0 62.464-31.808 120.576-84.224 154.24 101.952 21.44 192.704 61.184 197.888 63.488zM234.6112 562.688a3059.2 3059.2 0 0 1-81.536 24.256 624.64 624.64 0 0 0-23.552 9.792c-48.768 26.816-60.544 84.032-63.168 115.584v15.232c0 1.28-0.64 2.432-0.768 3.648A32.832 32.832 0 0 1 0.0512 727.552V631.936c0-26.816 16.96-53.76 40.576-64.96A714.24 714.24 0 0 1 172.8512 509.248a137.216 137.216 0 0 1-33.216-88.96v-87.68c0.064-76.16 61.504-137.984 137.408-138.048 13.312 0 25.28 8 30.464 20.288 0.704 2.816 0.448 5.312-1.152 7.04-19.648 4.8-25.92 56.128-25.92 56.128V383.36c0 81.088 10.368 102.592 24.896 130.368 6.208 20.8-17.28 31.232-17.28 31.232s-17.152 6.336-53.376 17.664z m554.88 0c-36.224-11.328-53.376-17.664-53.376-17.664s-23.488-10.432-17.28-31.232c14.528-27.776 24.896-49.28 24.896-130.368V278.016s-6.272-51.328-25.92-56.192c-1.6-1.664-1.856-4.16-1.152-6.976a33.088 33.088 0 0 1 30.464-20.288 137.856 137.856 0 0 1 137.408 138.112v87.68c0 33.984-12.8 64.832-33.28 88.96a714.24 714.24 0 0 1 132.224 57.6c23.68 11.328 40.576 38.208 40.576 65.024v95.616a32.832 32.832 0 1 1-65.536 3.648c-0.128-1.28-0.768-2.368-0.768-3.648v-15.232c-2.624-31.552-14.4-88.768-63.168-115.584a624.64 624.64 0 0 0-23.552-9.792 3059.2 3059.2 0 0 1-81.536-24.256z" p-id="5006"></path></svg>